<svg width="359" height="251" viewBox="0 0 359 251" fill="none" xmlns="http://www.w3.org/2000/svg">
<g clip-path="url(#clip0_287_909)">
<path d="M104.994 199.157C107.072 199.157 108.756 197.473 108.756 195.395C108.756 193.317 107.072 191.633 104.994 191.633C102.916 191.633 101.231 193.317 101.231 195.395C101.231 197.473 102.916 199.157 104.994 199.157Z" fill="#FFF6C7"/>
<path d="M90.7842 229.782C92.3396 229.782 93.6004 228.521 93.6004 226.966C93.6004 225.411 92.3396 224.15 90.7842 224.15C89.2289 224.15 87.968 225.411 87.968 226.966C87.968 228.521 89.2289 229.782 90.7842 229.782Z" fill="#FFE980"/>
<path d="M56.0785 182.858C57.0788 182.858 57.8897 182.047 57.8897 181.047C57.8897 180.047 57.0788 179.236 56.0785 179.236C55.0781 179.236 54.2672 180.047 54.2672 181.047C54.2672 182.047 55.0781 182.858 56.0785 182.858Z" fill="#FFE1CD"/>
<path d="M35.4303 209.743C36.7855 209.743 37.8842 208.645 37.8842 207.29C37.8842 205.934 36.7855 204.836 35.4303 204.836C34.075 204.836 32.9763 205.934 32.9763 207.29C32.9763 208.645 34.075 209.743 35.4303 209.743Z" fill="#E7CBFF"/>
<path d="M68.0443 190.815C68.0443 190.815 68.0443 183.15 69.4349 183.15C70.8255 183.15 70.8255 190.815 70.8255 190.815C70.8255 190.815 75.0088 188.022 75.71 189.424C76.4111 190.826 71.8771 193.701 71.8771 193.701C71.8771 193.701 77.1005 197.79 76.4111 199.181C75.7217 200.571 71.5266 197.79 71.5266 197.79C71.5266 197.79 72.2277 202.674 70.136 202.674C68.0443 202.674 68.0443 199.543 68.0443 197.977V195.851C68.0443 195.851 63.1598 200.594 61.7692 198.503C60.3787 196.411 65.7657 193.619 65.7657 193.619C65.7657 193.619 60.367 189.436 61.7692 188.046C63.1715 186.655 68.0443 190.838 68.0443 190.838V190.815Z" fill="#F0DEFF"/>
<path d="M54.0334 241.337C54.0334 241.337 52.1521 239.456 53.0986 237.575C54.0451 235.694 56.8964 239.456 56.8964 239.456C56.8964 239.456 60.6123 233.824 62.4937 235.694C64.3751 237.563 59.549 241.325 59.549 241.325C59.549 241.325 64.3751 244.141 63.4285 246.023C62.482 247.904 56.8496 243.207 56.8496 243.207C56.8496 243.207 53.2505 247.845 51.7665 246.467C50.2824 245.088 54.0334 241.325 54.0334 241.325V241.337Z" fill="#FFF6C7"/>
<path d="M123.41 233.847C123.41 233.847 121.412 234.525 120.407 233.193C119.402 231.861 123.083 231.148 123.083 231.148C123.083 231.148 120.383 226.51 122.382 225.832C124.38 225.154 125.361 229.922 125.361 229.922C125.361 229.922 129.077 227.48 130.082 228.812C131.087 230.144 125.747 232.504 125.747 232.504C125.747 232.504 127.78 236.71 126.273 237.283C124.765 237.855 123.41 233.847 123.41 233.847Z" fill="#E7CBFF"/>
<path d="M204.413 186.643C206.407 186.643 208.024 185.027 208.024 183.033C208.024 181.039 206.407 179.422 204.413 179.422C202.419 179.422 200.802 181.039 200.802 183.033C200.802 185.027 202.419 186.643 204.413 186.643Z" fill="#F0DEFF"/>
<path d="M163.245 242.178C164.543 242.178 165.594 241.127 165.594 239.83C165.594 238.533 164.543 237.481 163.245 237.481C161.948 237.481 160.897 238.533 160.897 239.83C160.897 241.127 161.948 242.178 163.245 242.178Z" fill="#FFF6C7"/>
<path d="M150.333 217.934C151.23 217.934 151.957 217.207 151.957 216.31C151.957 215.413 151.23 214.686 150.333 214.686C149.436 214.686 148.709 215.413 148.709 216.31C148.709 217.207 149.436 217.934 150.333 217.934Z" fill="#FFE1CD"/>
<path d="M136.112 164.034C136.112 164.034 140.95 159.197 141.826 160.073C142.703 160.95 137.865 165.787 137.865 165.787C137.865 165.787 142.259 166.663 141.826 167.984C141.394 169.304 136.708 168.264 136.708 168.264C136.708 168.264 137.432 174.141 136.112 174.573C134.792 175.006 133.915 170.613 133.915 170.613C133.915 170.613 131.274 174.129 129.954 172.809C128.633 171.489 130.608 169.514 131.601 168.521L132.945 167.177C132.945 167.177 126.88 167.096 127.313 164.899C127.745 162.702 132.91 164.35 132.91 164.35C132.91 164.35 132.151 158.309 133.903 158.309C135.656 158.309 136.1 164.023 136.1 164.023L136.112 164.034Z" fill="#FFE1CD"/>
<path d="M154.879 223.531C154.879 223.531 153.605 222.257 154.236 220.972C154.867 219.687 156.819 222.245 156.819 222.245C156.819 222.245 159.343 218.413 160.628 219.687C161.913 220.96 158.63 223.519 158.63 223.519C158.63 223.519 161.913 225.435 161.271 226.709C160.628 227.982 156.795 224.793 156.795 224.793C156.795 224.793 154.353 227.947 153.336 227.012C152.32 226.078 154.879 223.519 154.879 223.519V223.531Z" fill="#FFE1CD"/>
<path d="M222.339 211.519C222.339 211.519 222.748 208.89 224.828 208.551C226.908 208.212 225.541 212.734 225.541 212.734C225.541 212.734 232.283 212.419 231.874 215.048C231.465 217.677 225.587 215.982 225.587 215.982C225.587 215.982 226.148 221.532 224.068 221.883C221.988 222.234 222.479 214.908 222.479 214.908C222.479 214.908 216.613 214.732 216.847 212.711C217.08 210.69 222.339 211.519 222.339 211.519Z" fill="#FFE980"/>
<path d="M198.98 235.659C198.98 235.659 198.173 225.634 200.055 225.634C201.936 225.634 201.936 234.081 201.936 234.081C201.936 234.081 206.634 231.266 207.568 233.147C208.503 235.028 202.871 238.779 202.871 238.779C202.871 238.779 209.45 243.476 207.568 245.357C205.687 247.238 201.936 244.422 201.936 244.422C201.936 244.422 203.817 251 201.001 251C198.185 251 198.816 240.134 198.816 240.134C198.816 240.134 192.541 244.422 190.671 242.553C188.802 240.683 195.369 237.855 195.369 237.855C195.369 237.855 190.671 235.04 191.606 233.158C192.541 231.277 198.991 235.671 198.991 235.671L198.98 235.659Z" fill="#F0DEFF"/>
<path d="M198.921 192.579C199.96 192.579 200.803 191.737 200.803 190.698C200.803 189.659 199.96 188.817 198.921 188.817C197.882 188.817 197.04 189.659 197.04 190.698C197.04 191.737 197.882 192.579 198.921 192.579Z" fill="white"/>
<path d="M198.921 192.579C199.96 192.579 200.803 191.737 200.803 190.698C200.803 189.659 199.96 188.817 198.921 188.817C197.882 188.817 197.04 189.659 197.04 190.698C197.04 191.737 197.882 192.579 198.921 192.579Z" fill="white"/>
<path d="M102.166 190.71C103.205 190.71 104.047 189.867 104.047 188.828C104.047 187.789 103.205 186.947 102.166 186.947C101.127 186.947 100.284 187.789 100.284 188.828C100.284 189.867 101.127 190.71 102.166 190.71Z" fill="white"/>
<path d="M297.558 199.157C299.636 199.157 301.321 197.473 301.321 195.395C301.321 193.317 299.636 191.633 297.558 191.633C295.48 191.633 293.795 193.317 293.795 195.395C293.795 197.473 295.48 199.157 297.558 199.157Z" fill="#FFF6C7"/>
<path d="M264.663 236.792C266.219 236.792 267.48 235.531 267.48 233.976C267.48 232.421 266.219 231.16 264.663 231.16C263.108 231.16 261.847 232.421 261.847 233.976C261.847 235.531 263.108 236.792 264.663 236.792Z" fill="#FFE980"/>
<path d="M248.643 182.858C249.643 182.858 250.454 182.047 250.454 181.047C250.454 180.047 249.643 179.236 248.643 179.236C247.642 179.236 246.832 180.047 246.832 181.047C246.832 182.047 247.642 182.858 248.643 182.858Z" fill="#FFE1CD"/>
<path d="M236.268 147.805C237.804 147.805 239.049 146.56 239.049 145.024C239.049 143.489 237.804 142.244 236.268 142.244C234.732 142.244 233.487 143.489 233.487 145.024C233.487 146.56 234.732 147.805 236.268 147.805Z" fill="#E7CBFF"/>
<path d="M261.333 183.758C261.333 183.758 261.333 173.791 263.144 173.791C264.956 173.791 264.956 183.758 264.956 183.758C264.956 183.758 270.389 180.136 271.301 181.947C272.212 183.758 266.323 187.508 266.323 187.508C266.323 187.508 273.112 192.825 272.212 194.636C271.313 196.447 265.867 192.825 265.867 192.825C265.867 192.825 266.779 199.169 264.056 199.169C261.333 199.169 261.333 195.103 261.333 193.058V190.289C261.333 190.289 254.988 196.458 253.177 193.736C251.365 191.014 258.377 187.391 258.377 187.391C258.377 187.391 251.365 181.958 253.177 180.147C254.988 178.336 261.333 183.769 261.333 183.769V183.758Z" fill="#FFF6C7"/>
<path d="M307.806 215.153C307.806 215.153 305.808 215.83 304.803 214.498C303.798 213.166 307.479 212.454 307.479 212.454C307.479 212.454 304.78 207.815 306.778 207.137C308.776 206.46 309.758 211.227 309.758 211.227C309.758 211.227 313.474 208.785 314.478 210.117C315.483 211.449 310.143 213.809 310.143 213.809C310.143 213.809 312.176 218.015 310.669 218.588C309.162 219.16 307.806 215.153 307.806 215.153Z" fill="#E7CBFF"/>
<path d="M352.211 236.184C352.211 236.184 350.213 236.862 349.208 235.53C348.203 234.198 351.884 233.485 351.884 233.485C351.884 233.485 349.184 228.847 351.182 228.169C353.181 227.491 354.162 232.258 354.162 232.258C354.162 232.258 357.878 229.816 358.883 231.148C359.888 232.48 354.548 234.841 354.548 234.841C354.548 234.841 356.581 239.047 355.074 239.62C353.566 240.192 352.211 236.184 352.211 236.184Z" fill="#E7CBFF"/>
<path d="M280.637 205.957C280.637 205.957 282.484 199.601 283.629 200.045C284.774 200.489 282.811 205.689 282.811 205.689C282.811 205.689 286.363 205.046 286.504 206.425C286.644 207.803 282.297 208.797 282.297 208.797C282.297 208.797 285.253 213.225 283.652 213.938C282.051 214.65 280.404 212.045 280.404 212.045C280.404 212.045 280.03 216.532 278.289 215.877C276.548 215.223 279.481 208.68 279.481 208.68C279.481 208.68 274.619 209.86 273.907 208.271C273.194 206.682 277.891 206.471 277.891 206.471C277.891 206.471 275.659 203.644 276.676 202.709C277.693 201.774 280.637 205.969 280.637 205.969V205.957Z" fill="#FFE1CD"/>
<path d="M294.742 190.71C295.781 190.71 296.623 189.867 296.623 188.828C296.623 187.789 295.781 186.947 294.742 186.947C293.703 186.947 292.86 187.789 292.86 188.828C292.86 189.867 293.703 190.71 294.742 190.71Z" fill="white"/>
<path d="M130.702 95.1677C132.78 95.1677 134.464 93.4832 134.464 91.4054C134.464 89.3275 132.78 87.6431 130.702 87.6431C128.623 87.6431 126.939 89.3275 126.939 91.4054C126.939 93.4832 128.623 95.1677 130.702 95.1677Z" fill="#FFF6C7"/>
<path d="M67.4132 164.35C68.9686 164.35 70.2294 163.089 70.2294 161.534C70.2294 159.979 68.9686 158.718 67.4132 158.718C65.8579 158.718 64.597 159.979 64.597 161.534C64.597 163.089 65.8579 164.35 67.4132 164.35Z" fill="#FFE980"/>
<path d="M17.5164 77.6997C18.5168 77.6997 19.3277 76.8889 19.3277 75.8887C19.3277 74.8885 18.5168 74.0776 17.5164 74.0776C16.5161 74.0776 15.7052 74.8885 15.7052 75.8887C15.7052 76.8889 16.5161 77.6997 17.5164 77.6997Z" fill="#FFE1CD"/>
<path d="M107.857 153.425C109.741 153.425 111.269 151.898 111.269 150.013C111.269 148.129 109.741 146.602 107.857 146.602C105.972 146.602 104.444 148.129 104.444 150.013C104.444 151.898 105.972 153.425 107.857 153.425Z" fill="#E7CBFF"/>
<path d="M30.1951 78.5994C30.1951 78.5994 30.1951 68.6328 32.0064 68.6328C33.8176 68.6328 33.8176 78.5994 33.8176 78.5994C33.8176 78.5994 39.2513 74.9773 40.1628 76.7884C41.0743 78.5994 35.1848 82.3501 35.1848 82.3501C35.1848 82.3501 41.974 87.6664 41.0743 89.4774C40.1745 91.2885 34.7291 87.6664 34.7291 87.6664C34.7291 87.6664 35.6405 94.0109 32.9178 94.0109C30.1951 94.0109 30.1951 89.9448 30.1951 87.9001V85.1309C30.1951 85.1309 23.8499 91.3002 22.0387 88.5777C20.2274 85.8553 27.2387 82.2332 27.2387 82.2332C27.2387 82.2332 20.2274 76.8001 22.0387 74.989C23.8499 73.178 30.1951 78.6111 30.1951 78.6111V78.5994Z" fill="#F0DEFF"/>
<path d="M339.322 162.457C339.322 162.457 346.169 167.587 345.235 168.825C344.3 170.064 337.452 164.946 337.452 164.946C337.452 164.946 337.148 170.543 335.431 170.239C333.713 169.935 334.18 163.953 334.18 163.953C334.18 163.953 327.029 165.892 326.257 164.327C325.486 162.761 330.768 160.903 330.768 160.903C330.768 160.903 325.942 158.263 327.344 156.393C328.746 154.524 331.539 156.615 332.942 157.667L334.846 159.092C334.846 159.092 333.876 151.568 336.669 151.72C339.462 151.871 338.352 158.555 338.352 158.555C338.352 158.555 345.69 156.533 346.006 158.707C346.321 160.88 339.322 162.446 339.322 162.446V162.457Z" fill="#F0DEFF"/>
<path d="M340.327 207.453C340.327 207.453 338.445 205.572 339.392 203.691C340.338 201.809 343.19 205.572 343.19 205.572C343.19 205.572 346.906 199.94 348.787 201.809C350.668 203.679 345.842 207.441 345.842 207.441C345.842 207.441 350.668 210.257 349.722 212.138C348.775 214.019 343.143 209.322 343.143 209.322C343.143 209.322 339.544 213.961 338.06 212.582C336.576 211.204 340.327 207.441 340.327 207.441V207.453Z" fill="#FFF6C7"/>
<path d="M2.61755 182.916C2.61755 182.916 0.73619 181.035 1.68271 179.154C2.62923 177.273 5.48048 181.035 5.48048 181.035C5.48048 181.035 9.19645 175.403 11.0778 177.273C12.9592 179.142 8.13307 182.905 8.13307 182.905C8.13307 182.905 12.9592 185.72 12.0126 187.602C11.0661 189.483 5.43374 184.786 5.43374 184.786C5.43374 184.786 1.83462 189.424 0.350571 188.046C-1.13348 186.667 2.61755 182.905 2.61755 182.905V182.916Z" fill="#FFF6C7"/>
<path d="M15.9039 11.8479C15.9039 11.8479 13.9057 12.5256 12.9007 11.1936C11.8958 9.86161 15.5767 9.14888 15.5767 9.14888C15.5767 9.14888 12.8774 4.51025 14.8756 3.83257C16.8738 3.15488 17.8554 7.92204 17.8554 7.92204C17.8554 7.92204 21.5713 5.48004 22.5763 6.81204C23.5812 8.14404 18.241 10.5042 18.241 10.5042C18.241 10.5042 20.2742 14.7106 18.7668 15.2831C17.2594 15.8556 15.9039 11.8479 15.9039 11.8479Z" fill="#E7CBFF"/>
<path d="M173.517 190.219C173.517 190.219 175.737 182.554 177.128 183.08C178.518 183.605 176.146 189.891 176.146 189.891C176.146 189.891 180.423 189.12 180.598 190.779C180.774 192.439 175.527 193.642 175.527 193.642C175.527 193.642 179.091 198.982 177.163 199.846C175.235 200.711 173.237 197.568 173.237 197.568C173.237 197.568 172.781 202.978 170.689 202.183C168.597 201.389 172.126 193.502 172.126 193.502C172.126 193.502 166.26 194.927 165.396 192.999C164.531 191.072 170.21 190.838 170.21 190.838C170.21 190.838 167.511 187.426 168.738 186.293C169.965 185.159 173.517 190.23 173.517 190.23V190.219Z" fill="#FFE1CD"/>
<path d="M204.413 100.18C206.407 100.18 208.024 98.5639 208.024 96.5699C208.024 94.5759 206.407 92.9595 204.413 92.9595C202.419 92.9595 200.802 94.5759 200.802 96.5699C200.802 98.5639 202.419 100.18 204.413 100.18Z" fill="#F0DEFF"/>
<path d="M165.583 166.231C166.88 166.231 167.931 165.18 167.931 163.883C167.931 162.586 166.88 161.534 165.583 161.534C164.285 161.534 163.234 162.586 163.234 163.883C163.234 165.18 164.285 166.231 165.583 166.231Z" fill="#FFF6C7"/>
<path d="M150.333 131.471C151.23 131.471 151.957 130.744 151.957 129.847C151.957 128.95 151.23 128.223 150.333 128.223C149.436 128.223 148.709 128.95 148.709 129.847C148.709 130.744 149.436 131.471 150.333 131.471Z" fill="#FFE1CD"/>
<path d="M171.238 100.39C171.238 100.39 178.542 93.0878 179.874 94.4081C181.206 95.7284 173.891 103.043 173.891 103.043C173.891 103.043 180.528 104.375 179.874 106.361C179.22 108.347 172.15 106.782 172.15 106.782C172.15 106.782 173.237 115.662 171.238 116.316C169.24 116.97 167.92 110.334 167.92 110.334C167.92 110.334 163.935 115.65 161.937 113.652C159.939 111.654 162.93 108.675 164.426 107.179L166.459 105.146C166.459 105.146 157.286 105.017 157.952 101.699C158.618 98.3807 166.412 100.858 166.412 100.858C166.412 100.858 165.255 91.7324 167.92 91.7324C170.584 91.7324 171.238 100.367 171.238 100.367V100.39Z" fill="#FFE1CD"/>
<path d="M43.4114 139.159C43.4114 139.159 51.3107 142.688 50.668 144.125C50.0253 145.562 42.126 142.022 42.126 142.022C42.126 142.022 43.0725 147.607 41.308 147.688C39.5435 147.77 38.6671 141.776 38.6671 141.776C38.6671 141.776 32.0531 145.27 30.9313 143.914C29.8095 142.559 34.6122 139.533 34.6122 139.533C34.6122 139.533 29.272 138.002 30.2302 135.852C31.1884 133.702 34.4136 135.14 36.0379 135.864L38.2347 136.845C38.2347 136.845 35.6055 129.636 38.3983 129.169C41.1911 128.702 41.5768 135.537 41.5768 135.537C41.5768 135.537 48.366 131.915 49.1606 133.994C49.9552 136.074 43.3997 139.171 43.3997 139.171L43.4114 139.159Z" fill="#FFE1CD"/>
<path d="M16.9906 230.541C16.9906 230.541 15.7169 229.267 16.3479 227.982C16.9789 226.697 18.9304 229.256 18.9304 229.256C18.9304 229.256 21.4544 225.423 22.7398 226.697C24.0252 227.97 20.7416 230.529 20.7416 230.529C20.7416 230.529 24.0252 232.445 23.3825 233.719C22.7398 234.993 18.907 231.803 18.907 231.803C18.907 231.803 16.4647 234.957 15.4481 234.023C14.4315 233.088 16.9906 230.529 16.9906 230.529V230.541Z" fill="#FFE1CD"/>
<path d="M215.152 126.75C215.152 126.75 222.596 119.985 223.741 121.481C224.886 122.976 218.202 128.129 218.202 128.129C218.202 128.129 223.309 130.127 222.386 132.02C221.462 133.913 215.059 131.751 215.059 131.751C215.059 131.751 215.363 139.825 212.722 139.486C210.081 139.147 210.022 134.45 210.022 134.45C210.022 134.45 205.968 139.953 204.238 137.722C202.509 135.49 211.506 129.356 211.506 129.356C211.506 129.356 204.273 127.019 204.612 124.378C204.951 121.738 211.203 125.231 211.203 125.231C211.203 125.231 210.56 119.787 212.628 119.389C214.697 118.992 215.152 126.762 215.152 126.762V126.75Z" fill="#F0DEFF"/>
<path d="M198.921 106.116C199.96 106.116 200.803 105.274 200.803 104.235C200.803 103.196 199.96 102.354 198.921 102.354C197.882 102.354 197.04 103.196 197.04 104.235C197.04 105.274 197.882 106.116 198.921 106.116Z" fill="white"/>
<path d="M198.921 106.116C199.96 106.116 200.803 105.274 200.803 104.235C200.803 103.196 199.96 102.354 198.921 102.354C197.882 102.354 197.04 103.196 197.04 104.235C197.04 105.274 197.882 106.116 198.921 106.116Z" fill="white"/>
<path d="M102.166 104.247C103.205 104.247 104.047 103.404 104.047 102.366C104.047 101.327 103.205 100.484 102.166 100.484C101.127 100.484 100.284 101.327 100.284 102.366C100.284 103.404 101.127 104.247 102.166 104.247Z" fill="white"/>
<path d="M297.558 112.694C299.636 112.694 301.321 111.01 301.321 108.932C301.321 106.854 299.636 105.169 297.558 105.169C295.48 105.169 293.795 106.854 293.795 108.932C293.795 111.01 295.48 112.694 297.558 112.694Z" fill="#FFF6C7"/>
<path d="M259.989 164.35C261.545 164.35 262.805 163.089 262.805 161.534C262.805 159.979 261.545 158.718 259.989 158.718C258.434 158.718 257.173 159.979 257.173 161.534C257.173 163.089 258.434 164.35 259.989 164.35Z" fill="#FFE980"/>
<path d="M248.643 96.3946C249.643 96.3946 250.454 95.5837 250.454 94.5835C250.454 93.5833 249.643 92.7725 248.643 92.7725C247.642 92.7725 246.832 93.5833 246.832 94.5835C246.832 95.5837 247.642 96.3946 248.643 96.3946Z" fill="#FFE1CD"/>
<path d="M349.453 108.079C350.666 108.079 351.65 107.095 351.65 105.882C351.65 104.669 350.666 103.686 349.453 103.686C348.24 103.686 347.256 104.669 347.256 105.882C347.256 107.095 348.24 108.079 349.453 108.079Z" fill="#E7CBFF"/>
<path d="M261.333 97.2943C261.333 97.2943 261.333 87.3276 263.144 87.3276C264.956 87.3276 264.956 97.2943 264.956 97.2943C264.956 97.2943 270.389 93.6722 271.301 95.4832C272.212 97.2943 266.323 101.045 266.323 101.045C266.323 101.045 273.112 106.361 272.212 108.172C271.313 109.983 265.867 106.361 265.867 106.361C265.867 106.361 266.779 112.706 264.056 112.706C261.333 112.706 261.333 108.64 261.333 106.595V103.826C261.333 103.826 254.988 109.995 253.177 107.273C251.365 104.55 258.377 100.928 258.377 100.928C258.377 100.928 251.365 95.4949 253.177 93.6838C254.988 91.8728 261.333 97.3059 261.333 97.3059V97.2943Z" fill="#FFF6C7"/>
<path d="M340.081 92.948C340.081 92.948 338.2 91.0669 339.146 89.1857C340.093 87.3046 342.944 91.0669 342.944 91.0669C342.944 91.0669 346.66 85.4351 348.541 87.3046C350.423 89.174 345.597 92.9363 345.597 92.9363C345.597 92.9363 350.423 95.7522 349.476 97.6334C348.53 99.5145 342.897 94.8175 342.897 94.8175C342.897 94.8175 339.298 99.4561 337.814 98.0774C336.33 96.6986 340.081 92.9363 340.081 92.9363V92.948Z" fill="#FFE1CD"/>
<path d="M351.416 183.524C351.416 183.524 350.154 182.262 350.785 181.012C351.416 179.762 353.333 182.274 353.333 182.274C353.333 182.274 355.822 178.5 357.084 179.762C358.346 181.023 355.109 183.536 355.109 183.536C355.109 183.536 358.334 185.417 357.703 186.679C357.072 187.941 353.298 184.797 353.298 184.797C353.298 184.797 350.89 187.905 349.897 186.982C348.904 186.059 351.416 183.536 351.416 183.536V183.524Z" fill="#FFE1CD"/>
<path d="M307.806 128.69C307.806 128.69 305.808 129.367 304.803 128.035C303.798 126.703 307.479 125.991 307.479 125.991C307.479 125.991 304.78 121.352 306.778 120.674C308.776 119.997 309.758 124.764 309.758 124.764C309.758 124.764 313.474 122.322 314.478 123.654C315.483 124.986 310.143 127.346 310.143 127.346C310.143 127.346 312.176 131.552 310.669 132.125C309.162 132.697 307.806 128.69 307.806 128.69Z" fill="#E7CBFF"/>
<path d="M285.218 137.862C285.218 137.862 288.011 128.211 289.775 128.865C291.54 129.519 288.537 137.441 288.537 137.441C288.537 137.441 293.924 136.471 294.146 138.563C294.368 140.654 287.754 142.173 287.754 142.173C287.754 142.173 292.241 148.892 289.822 149.99C287.403 151.088 284.879 147.116 284.879 147.116C284.879 147.116 284.307 153.927 281.677 152.934C279.048 151.941 283.489 141.998 283.489 141.998C283.489 141.998 276.103 143.797 275.017 141.367C273.93 138.937 281.07 138.633 281.07 138.633C281.07 138.633 277.681 134.333 279.223 132.908C280.766 131.482 285.241 137.862 285.241 137.862H285.218Z" fill="#FFE1CD"/>
<path d="M294.742 104.247C295.781 104.247 296.623 103.404 296.623 102.366C296.623 101.327 295.781 100.484 294.742 100.484C293.703 100.484 292.86 101.327 292.86 102.366C292.86 103.404 293.703 104.247 294.742 104.247Z" fill="white"/>
<path d="M112.005 27.3996C114.083 27.3996 115.768 25.7152 115.768 23.6373C115.768 21.5594 114.083 19.875 112.005 19.875C109.927 19.875 108.242 21.5594 108.242 23.6373C108.242 25.7152 109.927 27.3996 112.005 27.3996Z" fill="#FFF6C7"/>
<path d="M75.5931 98.9184C77.1484 98.9184 78.4092 97.6577 78.4092 96.1025C78.4092 94.5473 77.1484 93.2866 75.5931 93.2866C74.0377 93.2866 72.7769 94.5473 72.7769 96.1025C72.7769 97.6577 74.0377 98.9184 75.5931 98.9184Z" fill="#FFE980"/>
<path d="M47.8986 11.1001C48.899 11.1001 49.7099 10.2893 49.7099 9.28908C49.7099 8.28886 48.899 7.47803 47.8986 7.47803C46.8983 7.47803 46.0874 8.28886 46.0874 9.28908C46.0874 10.2893 46.8983 11.1001 47.8986 11.1001Z" fill="#FFE1CD"/>
<path d="M27.3439 35.6485C29.9383 35.6485 32.0415 33.5456 32.0415 30.9514C32.0415 28.3573 29.9383 26.2544 27.3439 26.2544C24.7495 26.2544 22.6464 28.3573 22.6464 30.9514C22.6464 33.5456 24.7495 35.6485 27.3439 35.6485Z" fill="#E7CBFF"/>
<path d="M60.5773 15.5047C60.5773 15.5047 60.5773 5.53809 62.3886 5.53809C64.1998 5.53809 64.1998 15.5047 64.1998 15.5047C64.1998 15.5047 69.6335 11.8826 70.545 13.6937C71.4565 15.5047 65.567 19.2553 65.567 19.2553C65.567 19.2553 72.3562 24.5716 71.4565 26.3827C70.5567 28.1938 65.1113 24.5716 65.1113 24.5716C65.1113 24.5716 66.0227 30.9162 63.3 30.9162C60.5773 30.9162 60.5773 26.8501 60.5773 24.8053V22.0362C60.5773 22.0362 54.2321 28.2054 52.4209 25.483C50.6096 22.7606 57.6209 19.1385 57.6209 19.1385C57.6209 19.1385 50.6096 13.7053 52.4209 11.8943C54.2321 10.0832 60.5773 15.5164 60.5773 15.5164V15.5047Z" fill="#F0DEFF"/>
<path d="M62.2133 50.8845C62.2133 50.8845 60.3319 49.0034 61.2784 47.1222C62.2249 45.2411 65.0762 49.0034 65.0762 49.0034C65.0762 49.0034 68.7922 43.3716 70.6735 45.2411C72.5549 47.1105 67.7288 50.8729 67.7288 50.8729C67.7288 50.8729 72.5549 53.6888 71.6083 55.5699C70.6618 57.4511 65.0294 52.754 65.0294 52.754C65.0294 52.754 61.4303 57.3926 59.9463 56.0139C58.4622 54.6352 62.2133 50.8729 62.2133 50.8729V50.8845Z" fill="#FFF6C7"/>
<path d="M122.241 43.3953C122.241 43.3953 120.243 44.073 119.238 42.741C118.233 41.409 121.914 40.6962 121.914 40.6962C121.914 40.6962 119.215 36.0576 121.213 35.3799C123.211 34.7022 124.193 39.4694 124.193 39.4694C124.193 39.4694 127.909 37.0274 128.914 38.3594C129.919 39.6914 124.578 42.0516 124.578 42.0516C124.578 42.0516 126.612 46.2579 125.104 46.8304C123.597 47.403 122.241 43.3953 122.241 43.3953Z" fill="#E7CBFF"/>
<path d="M100.834 72.4305C100.834 72.4305 103.626 62.7794 105.391 63.4337C107.155 64.088 104.152 72.0099 104.152 72.0099C104.152 72.0099 109.539 71.0401 109.761 73.1316C109.983 75.223 103.369 76.742 103.369 76.742C103.369 76.742 107.857 83.4604 105.438 84.5587C103.019 85.657 100.495 81.6844 100.495 81.6844C100.495 81.6844 99.9221 88.4963 97.2929 87.5031C94.6637 86.51 99.1042 76.5667 99.1042 76.5667C99.1042 76.5667 91.719 78.3661 90.6322 75.9358C89.5455 73.5055 96.6853 73.2017 96.6853 73.2017C96.6853 73.2017 93.2965 68.9019 94.839 67.4764C96.3815 66.0509 100.857 72.4305 100.857 72.4305H100.834Z" fill="#FFE1CD"/>
<path d="M211.425 14.8859C213.419 14.8859 215.035 13.2694 215.035 11.2755C215.035 9.28148 213.419 7.66504 211.425 7.66504C209.43 7.66504 207.814 9.28148 207.814 11.2755C207.814 13.2694 209.43 14.8859 211.425 14.8859Z" fill="#F0DEFF"/>
<path d="M172.594 80.9363C173.891 80.9363 174.943 79.8848 174.943 78.5878C174.943 77.2907 173.891 76.2393 172.594 76.2393C171.297 76.2393 170.245 77.2907 170.245 78.5878C170.245 79.8848 171.297 80.9363 172.594 80.9363Z" fill="#FFF6C7"/>
<path d="M157.344 46.1759C158.241 46.1759 158.969 45.4488 158.969 44.5518C158.969 43.6549 158.241 42.9277 157.344 42.9277C156.447 42.9277 155.72 43.6549 155.72 44.5518C155.72 45.4488 156.447 46.1759 157.344 46.1759Z" fill="#FFE1CD"/>
<path d="M178.25 15.096C178.25 15.096 185.553 7.79336 186.885 9.11367C188.217 10.434 180.902 17.7483 180.902 17.7483C180.902 17.7483 187.54 19.0803 186.885 21.0666C186.231 23.0529 179.161 21.4872 179.161 21.4872C179.161 21.4872 180.248 30.3672 178.25 31.0215C176.251 31.6759 174.931 25.0392 174.931 25.0392C174.931 25.0392 170.946 30.3555 168.948 28.3575C166.95 26.3596 169.941 23.3801 171.437 21.8845L173.47 19.8514C173.47 19.8514 164.297 19.7229 164.963 16.4046C165.629 13.0863 173.424 15.5633 173.424 15.5633C173.424 15.5633 172.267 6.43799 174.931 6.43799C177.595 6.43799 178.25 15.0726 178.25 15.0726V15.096Z" fill="#FFE1CD"/>
<path d="M345.351 7.3729C345.351 7.3729 344.078 6.09932 344.709 4.81406C345.34 3.5288 347.291 6.08764 347.291 6.08764C347.291 6.08764 349.815 2.25522 351.101 3.5288C352.386 4.80238 349.102 7.36122 349.102 7.36122C349.102 7.36122 352.386 9.27743 351.743 10.551C351.101 11.8246 347.268 8.6348 347.268 8.6348C347.268 8.6348 344.826 11.7895 343.809 10.8548C342.792 9.92006 345.351 7.36122 345.351 7.36122V7.3729Z" fill="#FFE1CD"/>
<path d="M122.685 117.893C122.685 117.893 123.188 115.487 125.139 115.089C127.091 114.692 125.63 118.852 125.63 118.852C125.63 118.852 131.964 118.279 131.461 120.686C130.959 123.093 125.537 121.808 125.537 121.808C125.537 121.808 125.817 126.832 123.866 127.241C121.914 127.65 122.674 120.966 122.674 120.966C122.674 120.966 117.182 121.06 117.497 119.214C117.813 117.368 122.685 117.893 122.685 117.893Z" fill="#FFE980"/>
<path d="M195.474 53.3849C195.474 53.3849 194.668 43.3599 196.549 43.3599C198.43 43.3599 198.43 51.8075 198.43 51.8075C198.43 51.8075 203.128 48.9916 204.063 50.8728C204.998 52.754 199.365 56.5046 199.365 56.5046C199.365 56.5046 205.944 61.2016 204.063 63.0828C202.181 64.964 198.43 62.1481 198.43 62.1481C198.43 62.1481 200.312 68.7263 197.496 68.7263C194.679 68.7263 195.31 57.86 195.31 57.86C195.31 57.86 189.035 62.1481 187.166 60.2786C185.296 58.4091 191.863 55.5815 191.863 55.5815C191.863 55.5815 187.166 52.7656 188.1 50.8845C189.035 49.0033 195.486 53.3966 195.486 53.3966L195.474 53.3849Z" fill="#F0DEFF"/>
<path d="M205.932 20.8214C206.971 20.8214 207.814 19.9792 207.814 18.9402C207.814 17.9013 206.971 17.0591 205.932 17.0591C204.893 17.0591 204.051 17.9013 204.051 18.9402C204.051 19.9792 204.893 20.8214 205.932 20.8214Z" fill="white"/>
<path d="M205.932 20.8214C206.971 20.8214 207.814 19.9792 207.814 18.9402C207.814 17.9013 206.971 17.0591 205.932 17.0591C204.893 17.0591 204.051 17.9013 204.051 18.9402C204.051 19.9792 204.893 20.8214 205.932 20.8214Z" fill="white"/>
<path d="M109.177 18.9518C110.216 18.9518 111.058 18.1095 111.058 17.0706C111.058 16.0317 110.216 15.1895 109.177 15.1895C108.138 15.1895 107.296 16.0317 107.296 17.0706C107.296 18.1095 108.138 18.9518 109.177 18.9518Z" fill="white"/>
<path d="M325.603 27.3996C327.681 27.3996 329.366 25.7152 329.366 23.6373C329.366 21.5594 327.681 19.875 325.603 19.875C323.525 19.875 321.84 21.5594 321.84 23.6373C321.84 25.7152 323.525 27.3996 325.603 27.3996Z" fill="#FFF6C7"/>
<path d="M267.001 79.0551C268.556 79.0551 269.817 77.7944 269.817 76.2392C269.817 74.6841 268.556 73.4233 267.001 73.4233C265.445 73.4233 264.184 74.6841 264.184 76.2392C264.184 77.7944 265.445 79.0551 267.001 79.0551Z" fill="#FFE980"/>
<path d="M255.654 11.1001C256.654 11.1001 257.465 10.2893 257.465 9.28908C257.465 8.28886 256.654 7.47803 255.654 7.47803C254.654 7.47803 253.843 8.28886 253.843 9.28908C253.843 10.2893 254.654 11.1001 255.654 11.1001Z" fill="#FFE1CD"/>
<path d="M244.448 41.4908C247.042 41.4908 249.145 39.3878 249.145 36.7937C249.145 34.1996 247.042 32.0967 244.448 32.0967C241.853 32.0967 239.75 34.1996 239.75 36.7937C239.75 39.3878 241.853 41.4908 244.448 41.4908Z" fill="#E7CBFF"/>
<path d="M289.378 11.9998C289.378 11.9998 289.378 2.0332 291.189 2.0332C293.001 2.0332 293.001 11.9998 293.001 11.9998C293.001 11.9998 298.434 8.37772 299.346 10.1888C300.257 11.9998 294.368 15.7505 294.368 15.7505C294.368 15.7505 301.157 21.0668 300.257 22.8778C299.358 24.6889 293.912 21.0668 293.912 21.0668C293.912 21.0668 294.824 27.4113 292.101 27.4113C289.378 27.4113 289.378 23.3452 289.378 21.3004V18.5313C289.378 18.5313 283.033 24.7006 281.222 21.9781C279.411 19.2557 286.422 15.6336 286.422 15.6336C286.422 15.6336 279.411 10.2005 281.222 8.38941C283.033 6.57836 289.378 12.0115 289.378 12.0115V11.9998Z" fill="#FFF6C7"/>
<path d="M339.357 43.3953C339.357 43.3953 337.359 44.073 336.354 42.741C335.349 41.409 339.03 40.6962 339.03 40.6962C339.03 40.6962 336.33 36.0576 338.328 35.3799C340.327 34.7022 341.308 39.4694 341.308 39.4694C341.308 39.4694 345.024 37.0274 346.029 38.3594C347.034 39.6914 341.694 42.0516 341.694 42.0516C341.694 42.0516 343.727 46.2579 342.22 46.8304C340.712 47.403 339.357 43.3953 339.357 43.3953Z" fill="#E7CBFF"/>
<path d="M316.769 52.5672C316.769 52.5672 319.562 42.9161 321.326 43.5704C323.091 44.2247 320.087 52.1466 320.087 52.1466C320.087 52.1466 325.474 51.1768 325.696 53.2683C325.918 55.3598 319.305 56.8787 319.305 56.8787C319.305 56.8787 323.792 63.5971 321.373 64.6954C318.954 65.7938 316.43 61.8211 316.43 61.8211C316.43 61.8211 315.857 68.633 313.228 67.6399C310.599 66.6467 315.039 56.7034 315.039 56.7034C315.039 56.7034 307.654 58.5028 306.567 56.0725C305.481 53.6422 312.62 53.3384 312.62 53.3384C312.62 53.3384 309.232 49.0386 310.774 47.6131C312.317 46.1877 316.792 52.5672 316.792 52.5672H316.769Z" fill="#FFE1CD"/>
<path d="M322.787 18.9518C323.826 18.9518 324.668 18.1095 324.668 17.0706C324.668 16.0317 323.826 15.1895 322.787 15.1895C321.748 15.1895 320.906 16.0317 320.906 17.0706C320.906 18.1095 321.748 18.9518 322.787 18.9518Z" fill="white"/>
<path d="M192.237 150.002C193.237 150.002 194.048 149.191 194.048 148.191C194.048 147.191 193.237 146.38 192.237 146.38C191.237 146.38 190.426 147.191 190.426 148.191C190.426 149.191 191.237 150.002 192.237 150.002Z" fill="#FFE1CD"/>
<path d="M201.807 197.159C202.472 197.159 203.011 196.621 203.011 195.956C203.011 195.291 202.472 194.752 201.807 194.752C201.143 194.752 200.604 195.291 200.604 195.956C200.604 196.621 201.143 197.159 201.807 197.159Z" fill="#FFF6C7"/>
<path d="M19.3511 137.92C20.2159 137.92 20.917 137.219 20.917 136.355C20.917 135.49 20.2159 134.789 19.3511 134.789C18.4863 134.789 17.7853 135.49 17.7853 136.355C17.7853 137.219 18.4863 137.92 19.3511 137.92Z" fill="#E7CBFF"/>
<path d="M337.335 185.475C338.2 185.475 338.901 184.774 338.901 183.909C338.901 183.045 338.2 182.344 337.335 182.344C336.47 182.344 335.769 183.045 335.769 183.909C335.769 184.774 336.47 185.475 337.335 185.475Z" fill="#FFF6C7"/>
<path d="M321.864 229.536C322.645 229.536 323.278 228.903 323.278 228.122C323.278 227.341 322.645 226.708 321.864 226.708C321.083 226.708 320.45 227.341 320.45 228.122C320.45 228.903 321.083 229.536 321.864 229.536Z" fill="#FFE980"/>
<path d="M343.342 224.044C344.858 224.044 346.088 222.815 346.088 221.299C346.088 219.782 344.858 218.553 343.342 218.553C341.825 218.553 340.595 219.782 340.595 221.299C340.595 222.815 341.825 224.044 343.342 224.044Z" fill="#F0DEFF"/>
<path d="M130.339 3.6221C131.34 3.6221 132.151 2.81127 132.151 1.81105C132.151 0.810835 131.34 0 130.339 0C129.339 0 128.528 0.810835 128.528 1.81105C128.528 2.81127 129.339 3.6221 130.339 3.6221Z" fill="#FFE1CD"/>
</g>
<defs>
<clipPath id="clip0_287_909">
<rect width="359" height="251" fill="white"/>
</clipPath>
</defs>
</svg>
