<svg width="24" height="24" viewBox="0 0 24 24" fill="none" xmlns="http://www.w3.org/2000/svg">
<path d="M8 18.928C9.21615 19.6302 10.5957 19.9999 12 20C13.4044 20.0001 14.784 19.6304 16.0002 18.9283C17.2164 18.2262 18.2263 17.2163 18.9285 16.0001C19.6307 14.7839 20.0004 13.4043 20.0004 12C20.0004 10.5957 19.6307 9.21609 18.9285 7.99991C18.2263 6.78374 17.2164 5.77383 16.0002 5.0717C14.784 4.36956 13.4044 3.99995 12 4C10.5957 4.00005 9.21615 4.36977 8 5.072" stroke="#813CEE" stroke-width="2"/>
<path d="M1.99997 12L1.21997 11.375L0.719971 12L1.21997 12.625L1.99997 12ZM11 13C11.2652 13 11.5195 12.8946 11.7071 12.7071C11.8946 12.5196 12 12.2652 12 12C12 11.7348 11.8946 11.4804 11.7071 11.2929C11.5195 11.1054 11.2652 11 11 11V13ZM5.21997 6.375L1.21997 11.375L2.77997 12.625L6.77997 7.625L5.21997 6.375ZM1.21997 12.625L5.21997 17.625L6.77997 16.375L2.77997 11.375L1.21997 12.625ZM1.99997 13H11V11H1.99997V13Z" fill="#813CEE"/>
</svg>
