<svg width="78" height="24" viewBox="0 0 78 24" fill="none" xmlns="http://www.w3.org/2000/svg">
<path d="M34.821 16.182C33.482 16.182 33.027 15.311 33.027 13.959V5.639H34.938V14.037C34.938 14.492 35.133 14.635 35.315 14.635C35.38 14.635 35.432 14.635 35.562 14.609L35.796 16.026C35.575 16.104 35.276 16.182 34.821 16.182ZM40.2346 16.182C38.4016 16.182 36.7376 14.778 36.7376 12.373C36.7376 9.955 38.4016 8.551 40.2346 8.551C42.0546 8.551 43.7186 9.955 43.7186 12.373C43.7186 14.778 42.0546 16.182 40.2346 16.182ZM40.2346 14.635C41.2226 14.635 41.7686 13.738 41.7686 12.373C41.7686 10.995 41.2226 10.111 40.2346 10.111C39.2336 10.111 38.6876 10.995 38.6876 12.373C38.6876 13.738 39.2336 14.635 40.2346 14.635ZM47.9433 19.159C46.2403 19.159 44.9143 18.574 44.9143 17.3C44.9143 16.689 45.2783 16.156 45.9543 15.792V15.727C45.5773 15.48 45.2913 15.09 45.2913 14.492C45.2913 13.946 45.6553 13.452 46.1103 13.14V13.088C45.6033 12.724 45.1223 12.035 45.1223 11.177C45.1223 9.461 46.5263 8.551 48.0603 8.551C48.4763 8.551 48.8663 8.616 49.1653 8.733H51.7913V10.137H50.5433C50.7383 10.384 50.8813 10.787 50.8813 11.229C50.8813 12.88 49.6333 13.699 48.0603 13.699C47.7743 13.699 47.4493 13.647 47.1243 13.53C46.9293 13.712 46.8123 13.868 46.8123 14.167C46.8123 14.544 47.1113 14.765 47.9563 14.765H49.2043C50.9593 14.765 51.9213 15.298 51.9213 16.585C51.9213 18.054 50.3743 19.159 47.9433 19.159ZM48.0603 12.529C48.6973 12.529 49.2043 12.035 49.2043 11.177C49.2043 10.319 48.7103 9.851 48.0603 9.851C47.4233 9.851 46.9163 10.319 46.9163 11.177C46.9163 12.035 47.4233 12.529 48.0603 12.529ZM48.2423 17.95C49.3343 17.95 50.0753 17.469 50.0753 16.91C50.0753 16.39 49.6463 16.247 48.8663 16.247H47.9823C47.5403 16.247 47.2413 16.221 46.9813 16.143C46.6433 16.416 46.5003 16.702 46.5003 17.001C46.5003 17.612 47.1763 17.95 48.2423 17.95ZM59.2694 16.182C57.4364 16.182 55.7724 14.778 55.7724 12.373C55.7724 9.955 57.4364 8.551 59.2694 8.551C61.0894 8.551 62.7534 9.955 62.7534 12.373C62.7534 14.778 61.0894 16.182 59.2694 16.182ZM59.2694 14.635C60.2574 14.635 60.8034 13.738 60.8034 12.373C60.8034 10.995 60.2574 10.111 59.2694 10.111C58.2684 10.111 57.7224 10.995 57.7224 12.373C57.7224 13.738 58.2684 14.635 59.2694 14.635ZM66.6011 16.182C65.0281 16.182 64.3391 15.103 64.3391 13.27V8.733H66.2501V13.036C66.2501 14.154 66.5621 14.544 67.2771 14.544C67.8751 14.544 68.2651 14.284 68.7591 13.634V8.733H70.6571V16H69.0971L68.9541 14.96H68.9151C68.2781 15.701 67.5891 16.182 66.6011 16.182ZM75.4245 16.182C73.6955 16.182 73.0325 15.09 73.0325 13.465V10.228H72.0185V8.811L73.1495 8.733L73.3575 6.757H74.9435V8.733H76.7505V10.228H74.9435V13.465C74.9435 14.297 75.2945 14.687 75.9315 14.687C76.1785 14.687 76.4515 14.596 76.6595 14.518L76.9715 15.909C76.5815 16.039 76.0745 16.182 75.4245 16.182Z" fill="#813CEE"/>
<path d="M8 18.928C9.21615 19.6302 10.5957 19.9999 12 20C13.4044 20.0001 14.784 19.6304 16.0002 18.9283C17.2164 18.2262 18.2263 17.2163 18.9285 16.0001C19.6307 14.7839 20.0004 13.4043 20.0004 12C20.0004 10.5957 19.6307 9.21609 18.9285 7.99991C18.2263 6.78374 17.2164 5.77383 16.0002 5.0717C14.784 4.36956 13.4044 3.99995 12 4C10.5957 4.00005 9.21615 4.36977 8 5.072" stroke="#813CEE" stroke-width="2"/>
<path d="M1.99997 12L1.21997 11.375L0.719971 12L1.21997 12.625L1.99997 12ZM11 13C11.2652 13 11.5195 12.8946 11.7071 12.7071C11.8946 12.5196 12 12.2652 12 12C12 11.7348 11.8946 11.4804 11.7071 11.2929C11.5195 11.1054 11.2652 11 11 11V13ZM5.21997 6.375L1.21997 11.375L2.77997 12.625L6.77997 7.625L5.21997 6.375ZM1.21997 12.625L5.21997 17.625L6.77997 16.375L2.77997 11.375L1.21997 12.625ZM1.99997 13H11V11H1.99997V13Z" fill="#813CEE"/>
</svg>
