<svg width="17" height="17" viewBox="0 0 17 17" fill="none" xmlns="http://www.w3.org/2000/svg">
<path d="M10.8885 3.70572L9.38404 5.21872C8.80741 5.06399 8.2002 5.06382 7.62348 5.21824C7.04677 5.37266 6.52088 5.67622 6.09871 6.09839C5.67655 6.52055 5.37299 7.04644 5.21857 7.62316C5.06415 8.19987 5.06431 8.80709 5.21904 9.38372L2.87304 11.7212C1.75104 10.8712 0.816044 9.76622 0.170044 8.49972C1.13983 6.59813 2.73108 5.08562 4.6794 4.21352C6.62772 3.34141 8.81579 3.16222 10.88 3.70572H10.8885ZM14.1185 5.27822C15.249 6.12822 16.184 7.23322 16.8385 8.49972C15.8681 10.4048 14.2741 11.9198 12.3221 12.7921C10.3702 13.6645 8.1782 13.8415 6.11154 13.2937L7.61604 11.7807C8.19268 11.9355 8.79989 11.9356 9.37661 11.7812C9.95332 11.6268 10.4792 11.3232 10.9014 10.9011C11.3235 10.4789 11.6271 9.953 11.7815 9.37628C11.9359 8.79956 11.9358 8.19235 11.781 7.61572L14.127 5.27822H14.1185ZM13.906 1.88672L15.113 3.09372L3.09404 15.1127L1.88704 13.9057L13.906 1.88672Z" fill="#BFA6E7"/>
</svg>
