<svg width="22" height="22" viewBox="0 0 22 22" fill="none" xmlns="http://www.w3.org/2000/svg">
<g clip-path="url(#clip0_205_799)">
<path d="M14.2971 10.9983C14.2971 12.746 12.8183 14.1628 10.994 14.1628C9.16978 14.1628 7.69094 12.746 7.69094 10.9983C7.69094 9.2505 9.16978 7.8337 10.994 7.8337C12.8183 7.83368 14.2971 9.25052 14.2971 10.9983ZM11 4.40918C9.11121 4.41756 7.15341 4.87738 5.30009 5.75772C3.92403 6.43829 2.58298 7.39848 1.41889 8.58364C0.847147 9.18862 0.117902 10.0646 0 10.9993C0.0139333 11.8089 0.882383 12.8082 1.41889 13.4149C2.51051 14.5535 3.81663 15.4869 5.30009 16.2416C7.02839 17.0803 8.94139 17.5632 11 17.5901C12.8906 17.5816 14.8479 17.1165 16.6992 16.2416C18.0753 15.561 19.417 14.6001 20.5811 13.4149C21.1528 12.81 21.8821 11.9339 22 10.9993C21.9861 10.1897 21.1176 9.19031 20.5811 8.58361C19.4895 7.445 18.1827 6.51232 16.6992 5.75769C14.9718 4.91956 13.0541 4.43996 11 4.40918ZM10.9986 6.04539C13.8608 6.04539 16.181 8.26362 16.181 11C16.181 13.7364 13.8608 15.9546 10.9986 15.9546C8.13642 15.9546 5.81623 13.7363 5.81623 11C5.81623 8.26362 8.13642 6.04539 10.9986 6.04539Z" fill="#BFA6E7"/>
</g>
<defs>
<clipPath id="clip0_205_799">
<rect width="22" height="22" fill="white"/>
</clipPath>
</defs>
</svg>
