<svg width="16" height="16" viewBox="0 0 16 16" fill="none" xmlns="http://www.w3.org/2000/svg">
<g clip-path="url(#clip0_205_799)">
<path d="M10.3979 7.99908C10.3979 9.27016 9.32239 10.3006 7.99565 10.3006C6.66893 10.3006 5.59341 9.27016 5.59341 7.99908C5.59341 6.72799 6.66893 5.69759 7.99565 5.69759C9.32239 5.69758 10.3979 6.728 10.3979 7.99908ZM8 3.20703C6.62633 3.21312 5.20248 3.54754 3.85461 4.18779C2.85384 4.68275 1.87853 5.38107 1.03192 6.243C0.616107 6.68299 0.0857467 7.32008 0 7.99983C0.0101333 8.58864 0.641733 9.31542 1.03192 9.75667C1.82583 10.5848 2.77573 11.2636 3.85461 11.8124C5.11156 12.4224 6.50283 12.7736 8 12.7932C9.37497 12.787 10.7985 12.4487 12.1449 11.8124C13.1457 11.3174 14.1215 10.6186 14.9681 9.75667C15.3839 9.31668 15.9142 8.67958 16 7.99983C15.9899 7.41102 15.3583 6.68422 14.9681 6.24298C14.1742 5.4149 13.2238 4.73659 12.1449 4.18776C10.8886 3.57822 9.49389 3.22942 8 3.20703ZM7.99899 4.397C10.0806 4.397 11.768 6.01026 11.768 8.00035C11.768 9.99043 10.0806 11.6037 7.99899 11.6037C5.9174 11.6037 4.22999 9.99042 4.22999 8.00035C4.22999 6.01026 5.9174 4.397 7.99899 4.397Z" fill="#BFA6E7"/>
</g>
<defs>
<clipPath id="clip0_205_799">
<rect width="16" height="16" fill="white"/>
</clipPath>
</defs>
</svg>
