<svg width="16" height="16" viewBox="0 0 16 16" fill="none" xmlns="http://www.w3.org/2000/svg">
<g clip-path="url(#clip0_224_1336)">
<path d="M5.49536 4.89328L1.24203 5.50995L1.16669 5.52528C1.05265 5.55556 0.94869 5.61555 0.865422 5.69915C0.782153 5.78274 0.722563 5.88694 0.692735 6.0011C0.662908 6.11526 0.663912 6.23529 0.695645 6.34893C0.727379 6.46257 0.788705 6.56576 0.87336 6.64795L3.95469 9.64728L3.22803 13.8839L3.21936 13.9573C3.21238 14.0752 3.23687 14.1929 3.29033 14.2983C3.34378 14.4037 3.42428 14.4929 3.52358 14.557C3.62289 14.621 3.73742 14.6575 3.85546 14.6627C3.9735 14.6679 4.0908 14.6416 4.19536 14.5866L7.99936 12.5866L11.7947 14.5866L11.8614 14.6173C11.9714 14.6606 12.091 14.6739 12.2079 14.6558C12.3247 14.6377 12.4347 14.5888 12.5264 14.5141C12.6182 14.4395 12.6884 14.3418 12.7299 14.231C12.7714 14.1203 12.7827 14.0005 12.7627 13.8839L12.0354 9.64728L15.118 6.64728L15.17 6.59062C15.2443 6.49913 15.293 6.38958 15.3112 6.27315C15.3293 6.15671 15.3163 6.03753 15.2734 5.92777C15.2305 5.818 15.1593 5.72157 15.067 5.64829C14.9747 5.57501 14.8647 5.52751 14.748 5.51062L10.4947 4.89328L8.59336 1.03995C8.53834 0.928305 8.45317 0.834292 8.34749 0.768551C8.2418 0.702811 8.11982 0.667969 7.99536 0.667969C7.8709 0.667969 7.74892 0.702811 7.64323 0.768551C7.53755 0.834292 7.45238 0.928305 7.39736 1.03995L5.49536 4.89328Z" fill="#813CEE"/>
</g>
<defs>
<clipPath id="clip0_224_1336">
<rect width="16" height="16" fill="white"/>
</clipPath>
</defs>
</svg>
