<svg width="24" height="24" viewBox="0 0 24 24" fill="none" xmlns="http://www.w3.org/2000/svg">
<g clip-path="url(#clip0_224_616)">
<path fill-rule="evenodd" clip-rule="evenodd" d="M8.29303 12.7073C8.10556 12.5198 8.00024 12.2655 8.00024 12.0003C8.00024 11.7352 8.10556 11.4809 8.29303 11.2933L13.95 5.63634C14.0423 5.54083 14.1526 5.46465 14.2746 5.41224C14.3966 5.35983 14.5279 5.33225 14.6606 5.33109C14.7934 5.32994 14.9251 5.35524 15.048 5.40552C15.1709 5.4558 15.2825 5.53006 15.3764 5.62395C15.4703 5.71784 15.5446 5.82949 15.5949 5.95239C15.6451 6.07529 15.6704 6.20696 15.6693 6.33974C15.6681 6.47252 15.6405 6.60374 15.5881 6.72575C15.5357 6.84775 15.4595 6.9581 15.364 7.05034L10.414 12.0003L15.364 16.9503C15.5462 17.1389 15.647 17.3915 15.6447 17.6537C15.6424 17.9159 15.5373 18.1668 15.3518 18.3522C15.1664 18.5376 14.9156 18.6427 14.6534 18.645C14.3912 18.6473 14.1386 18.5465 13.95 18.3643L8.29303 12.7073Z" fill="#434343"/>
</g>
<defs>
<clipPath id="clip0_224_616">
<rect width="24" height="24" fill="white"/>
</clipPath>
</defs>
</svg>
