<svg width="20" height="20" viewBox="0 0 20 20" fill="none" xmlns="http://www.w3.org/2000/svg">
<g clip-path="url(#clip0_175_248)">
<path d="M8.53583 13.595L5 10.0583L6.17833 8.87996L8.53583 11.2366L13.2492 6.52246L14.4283 7.70163L8.53583 13.595Z" fill="#AA52FF"/>
<path fill-rule="evenodd" clip-rule="evenodd" d="M0.833252 10.0002C0.833252 4.93766 4.93742 0.833496 9.99992 0.833496C15.0624 0.833496 19.1666 4.93766 19.1666 10.0002C19.1666 15.0627 15.0624 19.1668 9.99992 19.1668C4.93742 19.1668 0.833252 15.0627 0.833252 10.0002ZM9.99992 17.5002C9.01501 17.5002 8.03974 17.3062 7.12979 16.9293C6.21985 16.5524 5.39306 15.9999 4.69662 15.3035C4.00018 14.607 3.44773 13.7802 3.07082 12.8703C2.69391 11.9603 2.49992 10.9851 2.49992 10.0002C2.49992 9.01525 2.69391 8.03998 3.07082 7.13004C3.44773 6.2201 4.00018 5.3933 4.69662 4.69686C5.39306 4.00042 6.21985 3.44798 7.12979 3.07107C8.03974 2.69416 9.01501 2.50016 9.99992 2.50016C11.989 2.50016 13.8967 3.29034 15.3032 4.69686C16.7097 6.10338 17.4999 8.01104 17.4999 10.0002C17.4999 11.9893 16.7097 13.8969 15.3032 15.3035C13.8967 16.71 11.989 17.5002 9.99992 17.5002Z" fill="#AA52FF"/>
</g>
<defs>
<clipPath id="clip0_175_248">
<rect width="20" height="20" fill="white"/>
</clipPath>
</defs>
</svg>
