<svg width="27" height="27" viewBox="0 0 27 27" fill="none" xmlns="http://www.w3.org/2000/svg">
<path d="M13.5 2.53125C12.112 2.53125 10.9688 3.67453 10.9688 5.0625C10.9688 6.01172 11.5028 6.84534 12.2875 7.27734L9.80775 12.2344L5.93156 9.46603C6.19061 9.22797 6.39718 8.93851 6.5381 8.61614C6.67902 8.29378 6.75119 7.94557 6.75 7.59375C6.75 6.20578 5.60672 5.0625 4.21875 5.0625C2.83078 5.0625 1.6875 6.20578 1.6875 7.59375C1.6875 8.73112 2.46881 9.67697 3.50663 9.99337L5.0625 18.5625V22.7812H21.9375V18.5625L23.4934 9.99337C24.5312 9.67697 25.3125 8.73112 25.3125 7.59375C25.3125 6.20578 24.1692 5.0625 22.7812 5.0625C21.3933 5.0625 20.25 6.20578 20.25 7.59375C20.25 8.32866 20.5597 9.00112 21.0676 9.46603L17.1914 12.2344L14.7125 7.27734C15.1103 7.05986 15.4425 6.73965 15.6744 6.35009C15.9064 5.96053 16.0296 5.51588 16.0312 5.0625C16.0312 3.67453 14.888 2.53125 13.5 2.53125ZM13.5 4.21875C13.975 4.21875 14.3438 4.58831 14.3438 5.0625C14.3438 5.53753 13.9742 5.90625 13.5 5.90625C13.025 5.90625 12.6562 5.53669 12.6562 5.0625C12.6562 4.58747 13.0258 4.21875 13.5 4.21875ZM4.21875 6.75C4.69378 6.75 5.0625 7.11956 5.0625 7.59375C5.0625 8.06878 4.69294 8.4375 4.21875 8.4375C3.74372 8.4375 3.375 8.06794 3.375 7.59375C3.375 7.11872 3.74456 6.75 4.21875 6.75ZM22.7812 6.75C23.2563 6.75 23.625 7.11956 23.625 7.59375C23.625 8.06878 23.2554 8.4375 22.7812 8.4375C22.3062 8.4375 21.9375 8.06794 21.9375 7.59375C21.9375 7.11872 22.3071 6.75 22.7812 6.75ZM13.5 8.64844L16.1106 13.8696L17.3762 14.186L21.5949 11.1797L20.4078 17.7188H6.59222L5.40591 11.1797L9.62466 14.186L10.8903 13.8696L13.5 8.64844ZM6.75 19.4062H20.25V21.0938H6.75V19.4062Z" fill="#813CEE"/>
</svg>
