<svg width="28" height="28" viewBox="0 0 28 28" fill="none" xmlns="http://www.w3.org/2000/svg">
<g clip-path="url(#clip0_638_450)">
<path fill-rule="evenodd" clip-rule="evenodd" d="M19.2726 18.1114L20.9042 11.9018L18.5199 13.4203C18.0444 13.7234 17.4691 13.828 16.9174 13.7117C16.3656 13.5953 15.8816 13.2672 15.5691 12.7978L14 10.4404L12.4299 12.7989C12.1172 13.2681 11.6331 13.5959 11.0814 13.7121C10.5297 13.8283 9.9544 13.7235 9.47909 13.4203L7.09586 11.9018L8.7274 18.1114H19.2726ZM7.67417 10.9929C6.84817 10.4663 5.80463 11.2277 6.0534 12.1754L7.68601 18.3849C7.74645 18.6151 7.88141 18.8187 8.06981 18.964C8.25821 19.1094 8.48945 19.1882 8.7274 19.1883H19.2726C19.5106 19.1882 19.7418 19.1094 19.9302 18.964C20.1186 18.8187 20.2536 18.6151 20.314 18.3849L21.9466 12.1754C22.1943 11.2277 21.1519 10.4674 20.3259 10.9929L17.9416 12.5114C17.704 12.663 17.4164 12.7155 17.1405 12.6575C16.8647 12.5995 16.6226 12.4357 16.4662 12.2012L14.896 9.84275C14.7977 9.69526 14.6644 9.57433 14.5081 9.49069C14.3518 9.40704 14.1773 9.36328 14 9.36328C13.8227 9.36328 13.6482 9.40704 13.4919 9.49069C13.3356 9.57433 13.2024 9.69526 13.104 9.84275L11.5339 12.2012C11.3776 12.4359 11.1356 12.5999 10.8597 12.6581C10.5839 12.7163 10.2962 12.664 10.0585 12.5124L7.67417 10.9929Z" fill="#813CEE"/>
<path d="M15.0166 7.47853C15.0169 7.74844 14.91 8.00741 14.7193 8.19846C14.5286 8.38952 14.2699 8.49701 14 8.4973C13.7301 8.49758 13.4711 8.39064 13.2801 8.19999C13.089 8.00933 12.9815 7.75059 12.9812 7.48068C12.9809 7.21078 13.0879 6.95181 13.2785 6.76075C13.4692 6.56969 13.7279 6.4622 13.9978 6.46191C14.2678 6.46163 14.5267 6.56858 14.7178 6.75923C14.9088 6.94988 15.0163 7.20862 15.0166 7.47853ZM23.1538 9.51499C23.1539 9.64864 23.1277 9.78099 23.0766 9.90449C23.0255 10.028 22.9506 10.1402 22.8562 10.2348C22.7617 10.3293 22.6496 10.4043 22.5261 10.4555C22.4027 10.5068 22.2703 10.5332 22.1367 10.5332C22.003 10.5333 21.8707 10.507 21.7472 10.456C21.6237 10.4049 21.5115 10.33 21.4169 10.2355C21.3224 10.1411 21.2473 10.0289 21.1961 9.90548C21.1449 9.78204 21.1185 9.64971 21.1185 9.51607C21.1185 9.24616 21.2257 8.98731 21.4165 8.79645C21.6074 8.6056 21.8662 8.49838 22.1362 8.49838C22.4061 8.49838 22.6649 8.6056 22.8558 8.79645C23.0466 8.98731 23.1538 9.24508 23.1538 9.51499ZM6.88046 9.51499C6.8806 9.7849 6.77352 10.0438 6.58277 10.2348C6.39201 10.4257 6.13322 10.5331 5.86331 10.5332C5.72966 10.5333 5.59731 10.507 5.47381 10.456C5.35031 10.4049 5.23809 10.33 5.14353 10.2355C4.95258 10.0448 4.84522 9.78598 4.84508 9.51607C4.84508 9.24616 4.9523 8.98731 5.14315 8.79645C5.33401 8.6056 5.59286 8.49838 5.86277 8.49838C6.13268 8.49838 6.39153 8.6056 6.58239 8.79645C6.77324 8.98731 6.88046 9.24508 6.88046 9.51499Z" fill="#813CEE"/>
<path fill-rule="evenodd" clip-rule="evenodd" d="M8.88461 20.4613C8.88461 20.3185 8.94134 20.1815 9.04232 20.0806C9.14331 19.9796 9.28027 19.9229 9.42307 19.9229H18.8322C18.975 19.9229 19.1119 19.9796 19.2129 20.0806C19.3139 20.1815 19.3706 20.3185 19.3706 20.4613C19.3706 20.6041 19.3139 20.7411 19.2129 20.8421C19.1119 20.943 18.975 20.9998 18.8322 20.9998H9.42307C9.28027 20.9998 9.14331 20.943 9.04232 20.8421C8.94134 20.7411 8.88461 20.6041 8.88461 20.4613Z" fill="#813CEE"/>
<path fill-rule="evenodd" clip-rule="evenodd" d="M14 26.3842C20.8395 26.3842 26.3846 20.8392 26.3846 13.9996C26.3846 7.16009 20.8395 1.61501 14 1.61501C7.16047 1.61501 1.61539 7.16009 1.61539 13.9996C1.61539 20.8392 7.16047 26.3842 14 26.3842ZM14 27.4612C21.4351 27.4612 27.4615 21.4347 27.4615 13.9996C27.4615 6.56455 21.4351 0.538086 14 0.538086C6.56493 0.538086 0.538467 6.56455 0.538467 13.9996C0.538467 21.4347 6.56493 27.4612 14 27.4612Z" fill="#813CEE"/>
</g>
<defs>
<clipPath id="clip0_638_450">
<rect width="28" height="28" fill="white"/>
</clipPath>
</defs>
</svg>
