<svg width="22" height="22" viewBox="0 0 22 22" fill="none" xmlns="http://www.w3.org/2000/svg">
<path d="M14.091 4.79589L12.144 6.75389C11.3977 6.55365 10.6119 6.55344 9.8656 6.75328C9.11926 6.95311 8.4387 7.34596 7.89236 7.89229C7.34603 8.43862 6.95319 9.11918 6.75335 9.86552C6.55352 10.6119 6.55373 11.3977 6.75397 12.1439L3.71797 15.1689C2.26597 14.0689 1.05597 12.6389 0.219971 10.9999C1.47498 8.53901 3.53425 6.58165 6.05561 5.45304C8.57696 4.32444 11.4086 4.09254 14.08 4.79589H14.091ZM18.271 6.83089C19.734 7.93089 20.944 9.36089 21.791 10.9999C20.5351 13.4653 18.4723 15.4259 15.9462 16.5548C13.4201 17.6837 10.5835 17.9128 7.90897 17.2039L9.85597 15.2459C10.6022 15.4461 11.388 15.4463 12.1343 15.2465C12.8807 15.0467 13.5612 14.6538 14.1076 14.1075C14.6539 13.5612 15.0468 12.8806 15.2466 12.1343C15.4464 11.3879 15.4462 10.6021 15.246 9.85589L18.282 6.83089H18.271ZM17.996 2.44189L19.558 4.00389L4.00397 19.5579L2.44197 17.9959L17.996 2.44189Z" fill="#BFA6E7"/>
</svg>
