<svg width="24" height="24" viewBox="0 0 24 24" fill="none" xmlns="http://www.w3.org/2000/svg">
<path d="M11.9999 22.2453C17.5949 22.2453 22.2453 17.6047 22.2453 11.9998C22.2453 6.40482 17.5846 1.75439 11.9896 1.75439C6.38517 1.75439 1.75488 6.40482 1.75488 11.9998C1.75488 17.6047 6.39503 22.2453 11.9999 22.2453ZM12.0003 20.5378C7.2586 20.5378 3.47131 16.7407 3.47131 11.9998C3.47131 7.26839 7.24831 3.46182 11.9896 3.46182C16.7206 3.46182 20.5272 7.26882 20.5375 11.9998C20.5473 16.7411 16.7305 20.5378 11.9995 20.5378M11.9896 13.8178C12.4713 13.8178 12.7426 13.5465 12.7525 13.0245L12.9033 7.72097C12.9136 7.2084 12.5116 6.82697 11.9793 6.82697C11.4367 6.82697 11.0553 7.19854 11.0652 7.71068L11.1959 13.0245C11.2057 13.5367 11.4873 13.8178 11.9896 13.8178ZM11.9896 17.0823C12.5617 17.0823 13.0739 16.6203 13.0739 16.0378C13.0739 15.4451 12.572 14.993 11.9896 14.993C11.3969 14.993 10.9045 15.455 10.9045 16.0378C10.9045 16.6104 11.4067 17.0823 11.9896 17.0823Z" fill="#C56F68"/>
</svg>
