<svg width="21" height="21" viewBox="0 0 21 21" fill="none" xmlns="http://www.w3.org/2000/svg">
<path d="M10.5 20C15.7468 20 20 15.7468 20 10.5C20 5.25315 15.7468 1 10.5 1C5.25315 1 1 5.25315 1 10.5C1 15.7468 5.25315 20 10.5 20Z" stroke="#767676" stroke-width="2" stroke-linecap="round" stroke-linejoin="round"/>
<path d="M10.5 10.0254C11.1299 10.0254 11.734 9.77517 12.1794 9.32977C12.6248 8.88437 12.875 8.28028 12.875 7.65039C12.875 7.0205 12.6248 6.41641 12.1794 5.97101C11.734 5.52561 11.1299 5.27539 10.5 5.27539C9.87011 5.27539 9.26602 5.52561 8.82062 5.97101C8.37522 6.41641 8.125 7.0205 8.125 7.65039C8.125 8.28028 8.37522 8.88437 8.82062 9.32977C9.26602 9.77517 9.87011 10.0254 10.5 10.0254Z" stroke="#767676" stroke-width="2" stroke-linejoin="round"/>
<path d="M3.86084 17.3077C4.02424 14.8325 6.08384 12.875 8.60039 12.875H12.4004C14.9136 12.875 16.9713 14.8273 17.1395 17.2977" stroke="#767676" stroke-width="2" stroke-linecap="round" stroke-linejoin="round"/>
</svg>
