<svg width="24" height="24" viewBox="0 0 24 24" fill="none" xmlns="http://www.w3.org/2000/svg">
<path d="M11 17.8789H19M13.6667 3.8613L16.3333 6.66482M15 2.45953C15.3536 2.08776 15.8332 1.87891 16.3333 1.87891C16.581 1.87891 16.8262 1.93018 17.0549 2.02981C17.2837 2.12943 17.4916 2.27545 17.6667 2.45953C17.8418 2.64362 17.9807 2.86215 18.0754 3.10267C18.1702 3.34318 18.219 3.60096 18.219 3.8613C18.219 4.12163 18.1702 4.37941 18.0754 4.61992C17.9807 4.86044 17.8418 5.07897 17.6667 5.26306L6.55556 16.9444L3 17.8789L3.88889 14.1409L15 2.45953Z" stroke="#767676" stroke-width="2" stroke-linecap="round" stroke-linejoin="round"/>
</svg>
