<svg width="21" height="21" viewBox="0 0 21 21" fill="none" xmlns="http://www.w3.org/2000/svg">
<path d="M8.41247 5.79089L5.81334 1.45927C5.70647 1.28108 5.55527 1.1336 5.37447 1.03121C5.19367 0.928821 4.98944 0.875003 4.78166 0.875H0.602665C0.115774 0.875 -0.169217 1.4228 0.109758 1.82171L4.29326 7.79823C5.41067 6.75414 6.83186 6.03753 8.41247 5.79089ZM18.6473 0.875H14.4683C14.0457 0.875 13.654 1.09683 13.4367 1.45927L10.8375 5.79089C12.4181 6.03753 13.8393 6.75415 14.9567 7.79786L19.1402 1.82171C19.4192 1.4228 19.1342 0.875 18.6473 0.875ZM9.625 6.89062C5.9705 6.89062 3.00779 9.85332 3.00779 13.5078C3.00779 17.1623 5.9705 20.125 9.625 20.125C13.2795 20.125 16.2422 17.1623 16.2422 13.5078C16.2422 9.85332 13.2795 6.89062 9.625 6.89062ZM13.1035 12.8032L11.6775 14.1928L12.0147 16.1562C12.0749 16.5081 11.7042 16.7769 11.3887 16.6107L9.625 15.684L7.86166 16.6107C7.54584 16.7781 7.17551 16.5077 7.23566 16.1562L7.57291 14.1928L6.14683 12.8032C5.89041 12.5536 6.03216 12.1178 6.38558 12.0667L8.35683 11.7794L9.23774 9.99281C9.31707 9.83189 9.47047 9.75256 9.62425 9.75256C9.77877 9.75256 9.9333 9.83302 10.0126 9.99281L10.8935 11.7794L12.8648 12.0667C13.2182 12.1178 13.36 12.5536 13.1035 12.8032Z" fill="#9F57FB"/>
</svg>
