<svg width="23" height="23" viewBox="0 0 23 23" fill="none" xmlns="http://www.w3.org/2000/svg">
<path fill-rule="evenodd" clip-rule="evenodd" d="M3.36506 6.22949C3.78096 6.22949 4.17984 6.04018 4.47393 5.7032C4.76802 5.36622 4.93324 4.90918 4.93324 4.43262C4.93324 3.95606 4.76802 3.49901 4.47393 3.16203C4.17984 2.82506 3.78096 2.63574 3.36506 2.63574C2.94915 2.63574 2.55028 2.82506 2.25618 3.16203C1.96209 3.49901 1.79688 3.95606 1.79688 4.43262C1.79688 4.90918 1.96209 5.36622 2.25618 5.7032C2.55028 6.04018 2.94915 6.22949 3.36506 6.22949ZM7.44233 3.35449C7.19278 3.35449 6.95346 3.46808 6.77701 3.67027C6.60055 3.87246 6.50142 4.14668 6.50142 4.43262C6.50142 4.71855 6.60055 4.99278 6.77701 5.19497C6.95346 5.39715 7.19278 5.51074 7.44233 5.51074H18.106C18.3555 5.51074 18.5948 5.39715 18.7713 5.19497C18.9477 4.99278 19.0469 4.71855 19.0469 4.43262C19.0469 4.14668 18.9477 3.87246 18.7713 3.67027C18.5948 3.46808 18.3555 3.35449 18.106 3.35449H7.44233ZM7.44233 15.5732C7.19278 15.5732 6.95346 15.6868 6.77701 15.889C6.60055 16.0912 6.50142 16.3654 6.50142 16.6514C6.50142 16.9373 6.60055 17.2115 6.77701 17.4137C6.95346 17.6159 7.19278 17.7295 7.44233 17.7295H18.106C18.3555 17.7295 18.5948 17.6159 18.7713 17.4137C18.9477 17.2115 19.0469 16.9373 19.0469 16.6514C19.0469 16.3654 18.9477 16.0912 18.7713 15.889C18.5948 15.6868 18.3555 15.5732 18.106 15.5732H7.44233ZM6.50142 10.542C6.50142 10.2561 6.60055 9.98183 6.77701 9.77964C6.95346 9.57746 7.19278 9.46387 7.44233 9.46387H18.106C18.3555 9.46387 18.5948 9.57746 18.7713 9.77964C18.9477 9.98183 19.0469 10.2561 19.0469 10.542C19.0469 10.8279 18.9477 11.1022 18.7713 11.3043C18.5948 11.5065 18.3555 11.6201 18.106 11.6201H7.44233C7.19278 11.6201 6.95346 11.5065 6.77701 11.3043C6.60055 11.1022 6.50142 10.8279 6.50142 10.542ZM4.93324 10.542C4.93324 11.0186 4.76802 11.4756 4.47393 11.8126C4.17984 12.1496 3.78096 12.3389 3.36506 12.3389C2.94915 12.3389 2.55028 12.1496 2.25618 11.8126C1.96209 11.4756 1.79688 11.0186 1.79688 10.542C1.79688 10.0654 1.96209 9.60839 2.25618 9.27141C2.55028 8.93443 2.94915 8.74512 3.36506 8.74512C3.78096 8.74512 4.17984 8.93443 4.47393 9.27141C4.76802 9.60839 4.93324 10.0654 4.93324 10.542ZM3.36506 18.4482C3.78096 18.4482 4.17984 18.2589 4.47393 17.9219C4.76802 17.585 4.93324 17.1279 4.93324 16.6514C4.93324 16.1748 4.76802 15.7178 4.47393 15.3808C4.17984 15.0438 3.78096 14.8545 3.36506 14.8545C2.94915 14.8545 2.55028 15.0438 2.25618 15.3808C1.96209 15.7178 1.79688 16.1748 1.79688 16.6514C1.79688 17.1279 1.96209 17.585 2.25618 17.9219C2.55028 18.2589 2.94915 18.4482 3.36506 18.4482Z" fill="#9F57FB"/>
</svg>
