<svg width="21" height="21" viewBox="0 0 21 21" fill="none" xmlns="http://www.w3.org/2000/svg">
<path d="M2.625 6.125V4.375H4.375V3.5C4.375 3.03587 4.55937 2.59075 4.88756 2.26256C5.21575 1.93437 5.66087 1.75 6.125 1.75H11.375V7.875L13.5625 6.5625L15.75 7.875V1.75H16.625C17.5437 1.75 18.375 2.58125 18.375 3.5V17.5C18.375 18.4188 17.5437 19.25 16.625 19.25H6.125C5.20625 19.25 4.375 18.4188 4.375 17.5V16.625H2.625V14.875H4.375V11.375H2.625V9.625H4.375V6.125H2.625ZM6.125 9.625H4.375V11.375H6.125V9.625ZM6.125 6.125V4.375H4.375V6.125H6.125ZM6.125 16.625V14.875H4.375V16.625H6.125Z" fill="#813CEE"/>
</svg>
