<svg width="20" height="20" viewBox="0 0 20 20" fill="none" xmlns="http://www.w3.org/2000/svg">
<path d="M17.5 17.5V12.0225L19.1625 10.7925C19.5622 10.4967 19.8281 10.0542 19.9016 9.56241C19.9751 9.0706 19.8502 8.56973 19.5544 8.17L18.6188 6.90625C18.3466 6.53756 17.9484 6.28176 17.5 6.1875V5.625C17.5 5.45925 17.4341 5.30031 17.3169 5.18313L12.9419 0.808125C12.8247 0.690907 12.6657 0.625035 12.5 0.625H4.375C3.87772 0.625 3.40081 0.822544 3.04917 1.17417C2.69754 1.52581 2.5 2.00272 2.5 2.5V17.5C2.5 17.9973 2.69754 18.4742 3.04917 18.8258C3.40081 19.1775 3.87772 19.375 4.375 19.375H15.625C16.1223 19.375 16.5992 19.1775 16.9508 18.8258C17.3025 18.4742 17.5 17.9973 17.5 17.5ZM3.75 17.5V2.5C3.75 2.33424 3.81585 2.17527 3.93306 2.05806C4.05027 1.94085 4.20924 1.875 4.375 1.875H11.875V5.31687C11.875 5.8325 12.2931 6.25 12.8081 6.25H16.25V6.35625C16.1625 6.40125 16.0781 6.45375 15.9963 6.51438L14.3619 7.72375C14.3427 7.65917 14.3033 7.60251 14.2493 7.56219C14.1954 7.52187 14.1298 7.50006 14.0625 7.5H5.9375C5.85462 7.5 5.77513 7.53292 5.71653 7.59153C5.65792 7.65013 5.625 7.72962 5.625 7.8125C5.625 7.89538 5.65792 7.97487 5.71653 8.03347C5.77513 8.09208 5.85462 8.125 5.9375 8.125H13.8194L12.13 9.375H5.9375C5.85462 9.375 5.77513 9.40792 5.71653 9.46653C5.65792 9.52513 5.625 9.60462 5.625 9.6875C5.625 9.77038 5.65792 9.84987 5.71653 9.90847C5.77513 9.96708 5.85462 10 5.9375 10H11.2856L9.59625 11.25H5.9375C5.85462 11.25 5.77513 11.2829 5.71653 11.3415C5.65792 11.4001 5.625 11.4796 5.625 11.5625C5.625 11.6454 5.65792 11.7249 5.71653 11.7835C5.77513 11.8421 5.85462 11.875 5.9375 11.875H8.75187L7.0975 13.0988C7.08638 13.1071 7.07554 13.1159 7.065 13.125H5.9375C5.85462 13.125 5.77513 13.1579 5.71653 13.2165C5.65792 13.2751 5.625 13.3546 5.625 13.4375C5.625 13.5204 5.65792 13.5999 5.71653 13.6585C5.77513 13.7171 5.85462 13.75 5.9375 13.75H6.77063L5.87375 16.69C5.84523 16.7834 5.839 16.8822 5.85556 16.9785C5.87212 17.0747 5.911 17.1657 5.9691 17.2443C6.02719 17.3228 6.10287 17.3866 6.19008 17.4306C6.27728 17.4745 6.37358 17.4975 6.47125 17.4975L9.89125 17.5C10.0253 17.5002 10.1559 17.4572 10.2638 17.3775L16.25 12.9475V17.5C16.25 17.6658 16.1842 17.8247 16.0669 17.9419C15.9497 18.0592 15.7908 18.125 15.625 18.125H4.375C4.20924 18.125 4.05027 18.0592 3.93306 17.9419C3.81585 17.8247 3.75 17.6658 3.75 17.5ZM12.8081 5.625C12.7677 5.625 12.7276 5.61703 12.6902 5.60155C12.6528 5.58606 12.6189 5.56336 12.5902 5.53475C12.5616 5.50614 12.5389 5.47217 12.5235 5.43479C12.508 5.39741 12.5 5.35734 12.5 5.31687V2.13375L15.9913 5.625H12.8081ZM16.3975 11.2838L14.7219 9.0125L15.4531 8.47125L17.1319 10.74L16.3975 11.2838ZM8.4825 13.6294L14.2194 9.38438L15.8944 11.6556L10.2181 15.8556L8.4825 13.6294ZM7.995 14.02L9.715 16.2281L9.68563 16.25L8.05188 16.2487L7.53062 15.5438L7.995 14.02Z" fill="#813CEE"/>
</svg>
