<svg width="20" height="20" viewBox="0 0 20 20" fill="none" xmlns="http://www.w3.org/2000/svg">
<path fill-rule="evenodd" clip-rule="evenodd" d="M14.1668 6.66667C14.1668 8.96792 12.3014 10.8333 10.0002 10.8333C7.69891 10.8333 5.8335 8.96792 5.8335 6.66667C5.8335 4.36542 7.69891 2.5 10.0002 2.5C12.3014 2.5 14.1668 4.36542 14.1668 6.66667ZM13.3335 6.66667C13.3335 7.55072 12.9823 8.39857 12.3572 9.02369C11.7321 9.64881 10.8842 10 10.0002 10C9.11611 10 8.26826 9.64881 7.64314 9.02369C7.01802 8.39857 6.66683 7.55072 6.66683 6.66667C6.66683 5.78261 7.01802 4.93477 7.64314 4.30964C8.26826 3.68452 9.11611 3.33333 10.0002 3.33333C10.8842 3.33333 11.7321 3.68452 12.3572 4.30964C12.9823 4.93477 13.3335 5.78261 13.3335 6.66667Z" fill="#813CEE"/>
<path d="M12.7084 11.6671C12.6641 11.657 12.6176 11.6623 12.5767 11.6822C12.5358 11.702 12.5029 11.7352 12.4834 11.7763L10.8334 16.4888V15.0004L10.5938 13.325C10.6703 13.3089 10.7407 13.2716 10.797 13.2174C10.8533 13.1631 10.8932 13.0942 10.9122 13.0183L11.1205 12.185C11.1359 12.1236 11.1371 12.0595 11.124 11.9976C11.1109 11.9356 11.0839 11.8775 11.0449 11.8276C11.006 11.7777 10.9562 11.7373 10.8994 11.7095C10.8425 11.6816 10.78 11.6672 10.7167 11.6671H9.28425C9.22096 11.6671 9.1585 11.6815 9.10162 11.7093C9.04474 11.7371 8.99494 11.7774 8.95598 11.8273C8.91702 11.8772 8.88994 11.9353 8.87679 11.9972C8.86364 12.0591 8.86477 12.1232 8.88008 12.1846L9.08842 13.0179C9.1073 13.0938 9.14718 13.1629 9.20347 13.2172C9.25977 13.2715 9.33021 13.3089 9.40675 13.325L9.16675 15.0004V16.1238L7.51675 11.7763C7.49723 11.7352 7.46432 11.702 7.42342 11.6822C7.38252 11.6623 7.33608 11.657 7.29175 11.6671C7.13246 11.7055 6.97302 11.7433 6.81341 11.7804C5.87091 12.0013 4.70591 12.2738 4.08675 12.6804C3.35216 13.1625 2.91675 13.7308 2.91675 14.3754V17.0838H17.0834V14.3754C17.0834 13.7308 16.648 13.1629 15.9134 12.6804C15.2942 12.2738 14.1292 12.0013 13.1867 11.7804C13.0188 11.7413 12.8576 11.7038 12.7084 11.6671Z" fill="#813CEE"/>
</svg>
